# xmcd
#
# Track frame offsets: 
#        150
#        18159
#        31438
#        44064
#        57648
#        71701
#        85675
#        96861
#        108429
#        119612
#        134487
#        147258
#        159956
#        172883
#        188442
#        201728
#        215257
#        230026
#        242341
#        255302
#
# Disc length: 3583 seconds
#
# Revision: 0
# Processed by: cddbd v1.5.2PL0 Copyright (c) Steve Scherf et al.
# Submitted via: ExactAudioCopy v0.90b4
#
DISCID=1d0dfd14
DTITLE=Various Artist - Bugg 2012
DYEAR=2012
DGENRE=Dansband
TTITLE0=BlackJack - En Gammal Amazon
TTITLE1=Lasse Stefanz - Cuba Libre
TTITLE2=Elisa's - Jag Säger Som Det Är
TTITLE3=Fernandoz - Mulliga Gulliga Ann-Katrin
TTITLE4=The Playtones - Madeleine
TTITLE5=Matz Bladhs - Säg Att Du Vill
TTITLE6=Streaplers - Tre Goda Skäl
TTITLE7=The KingBees - Steppin' Out And Going
TTITLE8=Flamingokvintetten - Mona Lisa
TTITLE9=Drifters - Hoppas På Det Bästa
TTITLE10=Willez - Louisiana
TTITLE11=Titanix - Genom Natten
TTITLE12=Mats Bergmans - Snälla Stanna Kvar
TTITLE13=Tommys - Nu Börjar Allting Kännas Okej
TTITLE14=Lotta Engberg - På Min Sommaräng
TTITLE15=Christer Sjögren - Burning Love
TTITLE16=Blender - Nej Nej Nej Nej
TTITLE17=Wahlströms - En Natt Med Dig
TTITLE18=Lasse Stefanz - Har Du Glömt
TTITLE19=Top Cats - Heartache
EXTD=
EXTT0=
EXTT1=
EXTT2=
EXTT3=
EXTT4=
EXTT5=
EXTT6=
EXTT7=
EXTT8=
EXTT9=
EXTT10=
EXTT11=
EXTT12=
EXTT13=
EXTT14=
EXTT15=
EXTT16=
EXTT17=
EXTT18=
EXTT19=
PLAYORDER=
